<?xml version="1.0" encoding="UTF-8"?>
<!-- Generator: https://ezgif.com/png-to-svg -->
<svg version="1.1" xmlns="http://www.w3.org/2000/svg" width="398" height="242">
<path d="M0 0 C12.34 9.63 24.03 21.38 30.45 35.92 C30.45 36.58 30.45 37.24 30.45 37.92 C31.6 37.99 32.76 38.05 33.95 38.11 C51.37 40.13 68.42 48.39 81.45 59.92 C82.42 60.7 83.39 61.47 84.39 62.27 C99.55 74.91 109.34 96.19 112.13 115.4 C114.5 141.74 108.89 165.91 92.22 186.7 C90.04 189.2 87.79 191.58 85.45 193.92 C84.69 194.69 83.93 195.46 83.15 196.26 C66.7 212.03 43.76 220.12 21.18 220.05 C20.38 220.05 19.59 220.05 18.77 220.06 C16.12 220.06 13.47 220.06 10.82 220.05 C8.91 220.05 7 220.06 5.09 220.06 C-0.12 220.06 -5.33 220.06 -10.54 220.06 C-16.11 220.06 -21.68 220.06 -27.24 220.06 C-36.69 220.06 -46.14 220.06 -55.59 220.05 C-65.06 220.05 -74.53 220.05 -84 220.05 C-151.19 220.09 -218.36 219.7 -285.55 218.92 C-285.55 218.26 -285.55 217.6 -285.55 216.92 C-284.06 215.69 -284.06 215.69 -281.96 214.31 C-281.18 213.79 -280.41 213.27 -279.61 212.73 C-278.76 212.18 -277.92 211.62 -277.05 211.05 C-268.6 205.38 -260.43 199.43 -252.34 193.27 C-248.12 190.09 -243.83 187.01 -239.55 183.92 C-239.94 183.24 -240.32 182.56 -240.72 181.86 C-250.26 164.11 -252.73 143.47 -247.99 123.8 C-244.28 112.16 -238.76 101.99 -230.55 92.92 C-229.91 92.22 -229.27 91.51 -228.62 90.78 C-216.52 78.05 -200.82 70.43 -183.55 67.92 C-182.56 67.92 -181.57 67.92 -180.55 67.92 C-180.44 67.12 -180.44 67.12 -180.32 66.3 C-177.28 48.15 -168.52 31.72 -156.55 17.92 C-155.89 17.12 -155.22 16.31 -154.54 15.47 C-116.79 -28.97 -45.83 -34.73 0 0 Z " fill="#3781F7" transform="translate(285.551025390625,22.076416015625)"/>
<path d="M0 0 C6.51 -0.08 13.02 -0.13 19.53 -0.16 C21.74 -0.18 23.95 -0.2 26.17 -0.23 C29.36 -0.26 32.55 -0.28 35.74 -0.29 C36.72 -0.31 37.7 -0.32 38.7 -0.34 C49.16 -0.34 57.89 2.29 66 9 C68.18 11.24 70.07 13.53 72 16 C74.01 10.1 74 6.67 74 0 C85.22 0 96.44 0 108 0 C108.99 5.94 108.99 5.94 110 12 C110.9 14.54 111.81 17.08 112.79 19.6 C114.78 25.2 116.31 30.93 117.89 36.65 C118.87 40.16 119.83 43.57 121.18 46.95 C122 49 122 49 122 52 C123.98 50.68 125.96 49.36 128 48 C127.43 42.1 126.21 36.85 124.35 31.23 C123.96 30.03 123.96 30.03 123.56 28.8 C123.01 27.12 122.46 25.43 121.91 23.75 C121.06 21.18 120.23 18.6 119.39 16.03 C118.86 14.39 118.32 12.75 117.79 11.11 C117.54 10.34 117.29 9.57 117.03 8.78 C115.95 5.52 114.92 2.87 113 0 C124.55 0 136.1 0 148 0 C152.6 17.25 152.6 17.25 153.75 23.94 C153.97 25.18 154.19 26.43 154.42 27.72 C154.61 28.8 154.8 29.88 155 31 C156.15 30.38 156.15 30.38 157.32 29.75 C160.18 28.21 163.03 26.67 165.89 25.13 C167.12 24.46 168.36 23.8 169.59 23.13 C171.37 22.17 173.14 21.22 174.92 20.26 C175.99 19.68 177.06 19.11 178.16 18.51 C179.85 17.61 181.56 16.75 183.3 15.97 C185.3 15.05 185.3 15.05 186.25 12.25 C187.28 7.79 187.45 4.36 186 0 C195.57 0 205.14 0 215 0 C213.27 6.91 211.56 13.75 209.55 20.57 C209.09 22.13 208.64 23.69 208.18 25.25 C207.95 26.04 207.71 26.84 207.47 27.66 C203.94 39.72 200.46 51.79 197.25 63.94 C194.83 73.08 192.21 82.15 189.4 91.18 C188.59 93.78 187.79 96.39 187 99 C186.7 99.97 186.4 100.93 186.1 101.93 C185.81 102.89 185.53 103.85 185.23 104.85 C184.97 105.72 184.71 106.58 184.44 107.48 C183.81 111.05 184.39 113.77 186 117 C173.79 117 161.58 117 149 117 C148.01 111.72 147.02 106.44 146 101 C144.33 95.34 144.33 95.34 142.54 89.73 C140.5 83.51 138.6 77.25 136.69 71 C135.98 68.71 135.28 66.42 134.57 64.12 C134.05 62.42 133.52 60.71 133 59 C132.4 59.31 131.8 59.62 131.19 59.94 C129 61 129 61 126 62 C126.3 62.97 126.61 63.94 126.92 64.94 C128.7 70.65 130.49 76.35 132.27 82.06 C132.47 82.71 132.68 83.37 132.89 84.04 C133.3 85.35 133.71 86.66 134.11 87.98 C135.19 91.42 136.27 94.85 137.39 98.28 C137.62 98.99 137.85 99.69 138.08 100.42 C138.71 102.38 139.35 104.33 139.98 106.28 C141 110 141 110 142 118 C132.1 118 122.2 118 112 118 C108.56 107.68 108.56 107.68 107.31 103.12 C106.94 101.77 106.94 101.77 106.55 100.38 C106 98 106 98 106 95 C99.92 94.5 94.94 94.47 90 98.35 C87.57 100.88 85.39 103.59 83.25 106.37 C81.39 108.79 79.4 111.1 77.44 113.44 C72.51 119.54 67.75 125.76 63 132 C58.76 130.56 55.76 128.46 52.31 125.62 C51.36 124.85 50.41 124.08 49.43 123.29 C45.84 119.91 45.84 119.91 45 117 C45.46 114.64 45.46 114.64 46.38 112.25 C46.67 111.45 46.97 110.65 47.27 109.83 C47.51 109.22 47.75 108.62 48 108 C47.31 108.47 46.62 108.94 45.91 109.43 C44.5 110.36 44.5 110.36 43.06 111.31 C42.15 111.93 41.23 112.54 40.29 113.18 C31.96 117.8 24.52 118.42 15.09 118.29 C13.88 118.29 12.67 118.28 11.43 118.28 C7.6 118.26 3.77 118.23 -0.06 118.19 C-2.67 118.17 -5.28 118.16 -7.89 118.15 C-14.26 118.11 -20.63 118.06 -27 118 C-26.7 117.13 -26.7 117.13 -26.4 116.24 C-24.92 111.87 -23.54 107.53 -22.46 103.04 C-22.19 101.95 -21.93 100.86 -21.65 99.73 C-21.38 98.56 -21.1 97.39 -20.81 96.19 C-20.51 94.93 -20.21 93.68 -19.9 92.39 C-17.17 80.9 -14.6 69.38 -12.07 57.85 C-10.33 49.97 -8.57 42.1 -6.75 34.25 C-6.57 33.45 -6.38 32.65 -6.19 31.83 C-5.31 28.02 -4.42 24.21 -3.53 20.41 C-3.21 19.03 -2.89 17.65 -2.57 16.27 C-2.29 15.08 -2.01 13.89 -1.72 12.66 C-0.89 8.46 -0.41 4.27 0 0 Z " fill="#FDFDFE" transform="translate(128,85)"/>
<path d="M0 0 C2.06 -0.08 4.12 -0.14 6.19 -0.19 C7.34 -0.22 8.48 -0.26 9.67 -0.29 C14.45 0.13 16.94 1.88 20.19 5.31 C26.43 14.57 25.37 29.33 23.38 39.96 C19.21 55.82 11.43 72.08 -2 82 C-5.19 83.59 -8.63 83.1 -12.12 83.06 C-12.88 83.06 -13.63 83.05 -14.41 83.05 C-16.27 83.04 -18.14 83.02 -20 83 C-19.41 77.68 -18.54 72.63 -17.25 67.42 C-17.08 66.71 -16.9 66 -16.72 65.27 C-16.15 62.95 -15.58 60.64 -15 58.32 C-14.6 56.7 -14.2 55.08 -13.8 53.46 C-12.97 50.08 -12.13 46.7 -11.29 43.32 C-10.21 38.98 -9.14 34.64 -8.07 30.3 C-7.25 26.96 -6.42 23.63 -5.6 20.29 C-5.2 18.69 -4.8 17.09 -4.41 15.49 C-3.86 13.26 -3.3 11.03 -2.75 8.8 C-2.44 7.53 -2.12 6.26 -1.8 4.96 C-1 2 -1 2 0 0 Z " fill="#3782F7" transform="translate(155,103)"/>
<path d="M0 0 C1.28 2.57 0.8 3.28 -0.04 5.97 C-0.29 6.78 -0.54 7.59 -0.79 8.42 C-1.07 9.29 -1.34 10.16 -1.62 11.06 C-2.19 12.9 -2.76 14.74 -3.32 16.57 C-3.75 17.95 -3.75 17.95 -4.18 19.36 C-5.32 23.02 -6.42 26.7 -7.5 30.38 C-7.7 31.04 -7.89 31.7 -8.1 32.39 C-9.32 36.55 -10.47 40.72 -11.57 44.91 C-11.84 45.92 -12.11 46.93 -12.39 47.97 C-12.91 49.96 -13.43 51.96 -13.95 53.95 C-14.18 54.86 -14.42 55.76 -14.67 56.69 C-14.88 57.5 -15.09 58.3 -15.3 59.14 C-16 61 -16 61 -18 62 C-20.02 53.67 -22.02 45.34 -24 37 C-24.2 36.18 -24.39 35.35 -24.59 34.51 C-25.05 32.57 -25.5 30.63 -25.94 28.69 C-26.17 27.66 -26.41 26.63 -26.65 25.57 C-27.02 22.82 -27.19 21.5 -26 19 C-24.12 17.28 -22.3 15.8 -20.25 14.31 C-19.68 13.88 -19.1 13.46 -18.51 13.01 C-12.46 8.52 -6.25 4.23 0 0 Z " fill="#3983F7" transform="translate(312,102)"/>
<path d="M0 0 C4.51 2.03 4.51 2.03 6 5 C6.39 13.06 6.39 13.06 4 17 C3.64 18.33 3.31 19.66 3 21 C-3.46 20.44 -9.35 19.26 -15.56 17.44 C-16.38 17.2 -17.2 16.97 -18.04 16.73 C-20.03 16.16 -22.01 15.58 -24 15 C-23.67 13.68 -23.34 12.36 -23 11 C-20.36 11 -17.72 11 -15 11 C-15.1 10.11 -15.21 9.23 -15.31 8.31 C-15 5 -15 5 -13.12 2.12 C-8.75 -0.85 -5.14 -0.79 0 0 Z " fill="#F0F5FE" transform="translate(106,126)"/>
<path d="M0 0 C2.44 2.44 2.91 4.32 3.95 7.59 C4.3 8.71 4.65 9.82 5.02 10.96 C5.38 12.13 5.75 13.3 6.12 14.5 C6.68 16.25 6.68 16.25 7.25 18.04 C10 26.72 10 26.72 10 29 C6.52 32.89 2.97 35.72 -2.27 36.46 C-5.21 36.44 -8.08 36.31 -11 36 C-10.36 31.41 -9.2 27.24 -7.71 22.85 C-7.49 22.19 -7.27 21.54 -7.05 20.86 C-6.35 18.78 -5.64 16.7 -4.94 14.62 C-4.46 13.21 -3.98 11.79 -3.51 10.37 C-2.34 6.91 -1.17 3.46 0 0 Z " fill="#3D85F7" transform="translate(218,126)"/>
<path d="M0 0 C4.56 1.59 8.31 3.99 12.31 6.62 C12.96 7.05 13.6 7.47 14.27 7.9 C15.85 8.93 17.42 9.96 19 11 C18.67 12.32 18.34 13.64 18 15 C13.38 15.33 8.76 15.66 4 16 C7.96 17.98 11.92 19.96 16 22 C15.67 23.65 15.34 25.3 15 27 C12.22 27.79 9.77 28.12 6.89 28.1 C6.14 28.09 5.38 28.09 4.61 28.09 C3.83 28.08 3.05 28.07 2.25 28.06 C1.46 28.06 0.66 28.05 -0.15 28.05 C-2.1 28.04 -4.05 28.02 -6 28 C-6 26.68 -6 25.36 -6 24 C-1.05 23.67 3.9 23.34 9 23 C5.04 21.02 1.08 19.04 -3 17 C-3 15.35 -3 13.7 -3 12 C3.44 11.5 3.44 11.5 10 11 C8.35 10.11 6.7 9.23 5 8.31 C2.19 6.8 2.19 6.8 0 5 C-0.31 2.29 -0.31 2.29 0 0 Z " fill="#F4F8FE" transform="translate(83,167)"/>
<path d="M0 0 C-0.53 5.03 -1.11 10.02 -2 15 C-0.35 14.34 1.3 13.68 3 13 C3.08 9.48 3.04 6.38 2 3 C3.32 3 4.64 3 6 3 C8.51 6.77 8.16 8.51 7.52 12.84 C7 15 7 15 5.56 17.56 C1.5 19.84 -2.46 19.75 -7 19 C-9.93 17.2 -11.47 16.06 -13 13 C-13.69 6.03 -13.69 6.03 -11 2 C-6.97 -0.69 -4.76 -0.4 0 0 Z " fill="#F3F7FE" transform="translate(99,148)"/>
<path d="M0 0 C3.62 0.31 3.62 0.31 6.06 1.44 C7.62 3.31 7.62 3.31 8 6.38 C7.62 9.31 7.62 9.31 5.62 11.31 C2.03 11.65 -0.51 11.71 -3.81 10.19 C-5.38 8.31 -5.38 8.31 -5.75 5.25 C-5.2 0.94 -4.3 0.4 0 0 Z " fill="#3A83F7" transform="translate(100.375,129.6875)"/>
<path d="M0 0 C-0.66 3.3 -1.32 6.6 -2 10 C-3.32 9.67 -4.64 9.34 -6 9 C-6.69 6.19 -6.69 6.19 -7 3 C-4.92 -0.29 -4.07 0 0 0 Z " fill="#4F90F8" transform="translate(96,152)"/>
<path d="M0 0 C0.33 0.66 0.66 1.32 1 2 C-2.63 4.31 -6.26 6.62 -10 9 C-10.66 8.01 -11.32 7.02 -12 6 C-8.04 4.02 -4.08 2.04 0 0 Z " fill="#DFEBFD" transform="translate(313,100)"/>
</svg>
